name rise37.2698peak67.6939fall79.5734.mot
datacolumns 19
datarows 18
range 1.52999600000000 1.55833000000000
endheader
time	ground_force1_vx	ground_force1_vy	ground_force1_vz	ground_force1_px	ground_force1_py	ground_force1_pz	ground_force2_vx	ground_force2_vy	ground_force2_vz	ground_force2_px	ground_force2_py	ground_force2_pz	ground_torque1_x	ground_torque1_y	ground_torque1_z	ground_torque2_x	ground_torque2_y	ground_torque2_z	
1.52999600000000	3.67526700000000	690.02962800000000	43.76835100000000	0.23202100000000	0.00000000000000	0.10713500000000	0.00000000000000	0.00000000000000	0.00000000000000	0.00000000000000	0.00000000000000	0.00000000000000	0.00000000000000	18.65426500000000	0.00000000000000	0.00000000000000	0.00000000000000	0.00000000000000	
1.53166800000000	3.14751400000000	691.02474099999995	43.89168500000000	0.23132700000000	0.00000000000000	0.10717400000000	0.00000000000000	0.00000000000000	0.00000000000000	0.00000000000000	0.00000000000000	0.00000000000000	0.00000000000000	18.77820600000000	0.00000000000000	0.00000000000000	0.00000000000000	0.00000000000000	
1.53333000000000	2.61178400000000	692.08637799999997	44.01744900000000	0.23062700000000	0.00000000000000	0.10721100000000	0.00000000000000	0.00000000000000	0.00000000000000	0.00000000000000	0.00000000000000	0.00000000000000	0.00000000000000	18.90521500000000	0.00000000000000	0.00000000000000	0.00000000000000	0.00000000000000	
1.53499200000000	2.06788500000000	693.21280000000002	44.14549100000000	0.22991900000000	0.00000000000000	0.10724800000000	0.00000000000000	0.00000000000000	0.00000000000000	0.00000000000000	0.00000000000000	0.00000000000000	0.00000000000000	19.03512800000000	0.00000000000000	0.00000000000000	0.00000000000000	0.00000000000000	
1.53666200000000	1.51565800000000	694.40220599999998	44.27567200000000	0.22920100000000	0.00000000000000	0.10728400000000	0.00000000000000	0.00000000000000	0.00000000000000	0.00000000000000	0.00000000000000	0.00000000000000	0.00000000000000	19.16778700000000	0.00000000000000	0.00000000000000	0.00000000000000	0.00000000000000	
1.53833200000000	0.95498300000000	695.65273700000000	44.40786500000000	0.22847100000000	0.00000000000000	0.10731900000000	0.00000000000000	0.00000000000000	0.00000000000000	0.00000000000000	0.00000000000000	0.00000000000000	0.00000000000000	19.30303200000000	0.00000000000000	0.00000000000000	0.00000000000000	0.00000000000000	
1.53999500000000	0.38577600000000	696.96247600000004	44.54195500000000	0.22772700000000	0.00000000000000	0.10735400000000	0.00000000000000	0.00000000000000	0.00000000000000	0.00000000000000	0.00000000000000	0.00000000000000	0.00000000000000	19.44070900000000	0.00000000000000	0.00000000000000	0.00000000000000	0.00000000000000	
1.54166400000000	-0.19200700000000	698.32945700000005	44.67784200000000	0.22696700000000	0.00000000000000	0.10738800000000	0.00000000000000	0.00000000000000	0.00000000000000	0.00000000000000	0.00000000000000	0.00000000000000	0.00000000000000	19.58066700000000	0.00000000000000	0.00000000000000	0.00000000000000	0.00000000000000	
1.54333400000000	-0.77837400000000	699.75166500000000	44.81543900000000	0.22619000000000	0.00000000000000	0.10742200000000	0.00000000000000	0.00000000000000	0.00000000000000	0.00000000000000	0.00000000000000	0.00000000000000	0.00000000000000	19.72275900000000	0.00000000000000	0.00000000000000	0.00000000000000	0.00000000000000	
1.54499400000000	-1.37329000000000	701.22704599999997	44.95466900000000	0.22539500000000	0.00000000000000	0.10745700000000	0.00000000000000	0.00000000000000	0.00000000000000	0.00000000000000	0.00000000000000	0.00000000000000	0.00000000000000	19.86683800000000	0.00000000000000	0.00000000000000	0.00000000000000	0.00000000000000	
1.54666500000000	-1.97668600000000	702.75350500000002	45.09547000000000	0.22458000000000	0.00000000000000	0.10749000000000	0.00000000000000	0.00000000000000	0.00000000000000	0.00000000000000	0.00000000000000	0.00000000000000	0.00000000000000	20.01276600000000	0.00000000000000	0.00000000000000	0.00000000000000	0.00000000000000	
1.54833500000000	-2.58845000000000	704.32891700000005	45.23779400000000	0.22374500000000	0.00000000000000	0.10752400000000	0.00000000000000	0.00000000000000	0.00000000000000	0.00000000000000	0.00000000000000	0.00000000000000	0.00000000000000	20.16040500000000	0.00000000000000	0.00000000000000	0.00000000000000	0.00000000000000	
1.54999600000000	-3.20843300000000	705.95112400000005	45.38160400000000	0.22288900000000	0.00000000000000	0.10755800000000	0.00000000000000	0.00000000000000	0.00000000000000	0.00000000000000	0.00000000000000	0.00000000000000	0.00000000000000	20.30962300000000	0.00000000000000	0.00000000000000	0.00000000000000	0.00000000000000	
1.55165800000000	-3.83644900000000	707.61794699999996	45.52687300000000	0.22201000000000	0.00000000000000	0.10759200000000	0.00000000000000	0.00000000000000	0.00000000000000	0.00000000000000	0.00000000000000	0.00000000000000	0.00000000000000	20.46029200000000	0.00000000000000	0.00000000000000	0.00000000000000	0.00000000000000	
1.55333200000000	-4.47227300000000	709.32718399999999	45.67358900000000	0.22111000000000	0.00000000000000	0.10762600000000	0.00000000000000	0.00000000000000	0.00000000000000	0.00000000000000	0.00000000000000	0.00000000000000	0.00000000000000	20.61228800000000	0.00000000000000	0.00000000000000	0.00000000000000	0.00000000000000	
1.55499200000000	-5.11564400000000	711.07661900000005	45.82175000000000	0.22018800000000	0.00000000000000	0.10766000000000	0.00000000000000	0.00000000000000	0.00000000000000	0.00000000000000	0.00000000000000	0.00000000000000	0.00000000000000	20.76549000000000	0.00000000000000	0.00000000000000	0.00000000000000	0.00000000000000	
1.55666600000000	-5.76626600000000	712.86402299999997	45.97136500000000	0.21924300000000	0.00000000000000	0.10769400000000	0.00000000000000	0.00000000000000	0.00000000000000	0.00000000000000	0.00000000000000	0.00000000000000	0.00000000000000	20.91978200000000	0.00000000000000	0.00000000000000	0.00000000000000	0.00000000000000	
1.55833000000000	-6.42380700000000	714.68715999999995	46.12245300000000	0.21827600000000	0.00000000000000	0.10772800000000	0.00000000000000	0.00000000000000	0.00000000000000	0.00000000000000	0.00000000000000	0.00000000000000	0.00000000000000	21.07505000000000	0.00000000000000	0.00000000000000	0.00000000000000	0.00000000000000	
